<svg width="11" height="5" viewBox="0 0 11 5" fill="none" xmlns="http://www.w3.org/2000/svg">
<path d="M10.3502 0.25V0.15H10.2502H9.5H9.4V0.25V2.5C9.4 2.64198 9.3115 2.80276 9.1141 2.96975C8.91859 3.13515 8.6297 3.29458 8.26394 3.43352C7.53326 3.71106 6.51447 3.89976 5.37548 3.89976C4.23649 3.89976 3.21752 3.71106 2.48666 3.43351C2.1208 3.29457 1.83182 3.13513 1.63624 2.96974C1.43876 2.80273 1.35024 2.64196 1.35024 2.5V0.25V0.15H1.25024H0.5H0.4V0.25V2.5C0.4 3.22807 1.00005 3.81567 1.89438 4.21593C2.79529 4.61913 4.02894 4.85 5.37548 4.85C6.72166 4.85 7.95513 4.61913 8.85595 4.21593C9.75019 3.81567 10.3502 3.22807 10.3502 2.5V0.25Z" fill="#FF3366" stroke="#FF3366" stroke-width="0.2"/>
</svg>
